Coordinates
version=1
nRows=28
nColumns=38
inDegrees=no

Units are S.I. units (second, meters, Newtons, ...)
If the header above contains a line with 'inDegrees', this indicates whether rotational values are in degrees (yes) or radians (no).

endheader
time	pelvis_tilt	pelvis_list	pelvis_rotation	pelvis_tx	pelvis_ty	pelvis_tz	hip_flexion_r	hip_adduction_r	hip_rotation_r	knee_angle_r	ankle_angle_r	subtalar_angle_r	mtp_angle_r	hip_flexion_l	hip_adduction_l	hip_rotation_l	knee_angle_l	ankle_angle_l	subtalar_angle_l	mtp_angle_l	lumbar_extension	lumbar_bending	lumbar_rotation	arm_flex_r	arm_add_r	arm_rot_r	elbow_flex_r	pro_sup_r	wrist_flex_r	wrist_dev_r	arm_flex_l	arm_add_l	arm_rot_l	elbow_flex_l	pro_sup_l	wrist_flex_l	wrist_dev_l
20.99	1.57974	1.37855	-0.107369	0.568921	-0.448327	0.976739	0.105557	0.0169847	-0.343077	0.419804	0.132874	0	0	-0.0796149	-0.104649	-0.318127	0	0.0520107	0	0	-0.121931	-0.115404	0.149617	0.346555	-0.586404	-0.00786531	1.12586	1.47113	0	0	0.73206	0.220043	0.693012	0.813433	1.5708	0	0
21	1.59452	1.37673	-0.121807	0.568549	-0.448104	0.976945	0.101481	0.0183063	-0.346504	0.418011	0.131297	0	0	-0.0831965	-0.105874	-0.317985	0	0.0525544	0	0	-0.125152	-0.114494	0.149489	0.348298	-0.587511	-0.0052301	1.12228	1.46543	0	0	0.732426	0.220964	0.693559	0.812935	1.5708	0	0
21.01	1.59763	1.37599	-0.125591	0.56828	-0.447938	0.97699	0.100877	0.0184553	-0.349331	0.418312	0.130703	0	0	-0.0842608	-0.106127	-0.318474	0	0.0530327	0	0	-0.125567	-0.114634	0.149906	0.350235	-0.587763	-0.00265205	1.11744	1.45633	0	0	0.732375	0.221561	0.694036	0.812365	1.5708	0	0
21.02	1.60027	1.37522	-0.128916	0.568025	-0.447773	0.977031	0.100289	0.0187299	-0.351852	0.418479	0.130095	0	0	-0.0852441	-0.106427	-0.319055	0	0.0536432	0	0	-0.125968	-0.11478	0.150326	0.352218	-0.587775	-0.000558097	1.11249	1.44782	0	0	0.732161	0.222489	0.69245	0.811269	1.5708	0	0
21.03	1.60222	1.37444	-0.13163	0.567802	-0.447629	0.977068	0.0997813	0.0190981	-0.354294	0.418501	0.129612	0	0	-0.0860649	-0.106794	-0.319625	0	0.0540979	0	0	-0.126238	-0.114887	0.150834	0.353849	-0.587795	0.00135175	1.10871	1.43947	0	0	0.731911	0.223351	0.691368	0.810555	1.5708	0	0
21.04	1.60371	1.37376	-0.133898	0.567586	-0.447495	0.977092	0.0993601	0.0193818	-0.356758	0.418493	0.129165	0	0	-0.0867575	-0.107084	-0.32009	0	0.0542779	0	0	-0.126348	-0.115024	0.151266	0.355615	-0.587808	0.00339565	1.10519	1.43104	0	0	0.731586	0.224175	0.69051	0.809983	1.5708	0	0
21.05	1.60553	1.37323	-0.136493	0.567374	-0.447362	0.977122	0.0989048	0.0195017	-0.359023	0.418584	0.128666	0	0	-0.0875167	-0.107208	-0.320355	0	0.0541934	0	0	-0.126504	-0.115341	0.151695	0.357522	-0.587702	0.00502536	1.10175	1.42242	0	0	0.73135	0.225104	0.689749	0.809165	1.5708	0	0
21.06	1.60767	1.37277	-0.13933	0.567165	-0.447218	0.977149	0.0984874	0.0195162	-0.361102	0.418967	0.128289	0	0	-0.0882968	-0.107241	-0.32073	0	0.0543855	0	0	-0.126782	-0.115729	0.152014	0.359146	-0.587548	0.00590584	1.09918	1.41415	0	0	0.731147	0.225841	0.689684	0.808787	1.5708	0	0
21.07	1.60974	1.37212	-0.142182	0.566972	-0.447083	0.977178	0.0978572	0.0198678	-0.362806	0.418792	0.127657	0	0	-0.0891366	-0.107536	-0.321822	0	0.0554844	0	0	-0.127129	-0.115914	0.152467	0.360462	-0.58761	0.0066456	1.09724	1.40756	0	0	0.731058	0.226453	0.690664	0.808818	1.5708	0	0
21.08	1.61133	1.37141	-0.14473	0.566796	-0.447001	0.977203	0.0970152	0.0204627	-0.364018	0.417686	0.12687	0	0	-0.0898579	-0.107909	-0.322748	0	0.0558681	0	0	-0.127398	-0.115946	0.15318	0.36165	-0.5877	0.00683025	1.09575	1.40211	0	0	0.730851	0.227138	0.69097	0.808792	1.5708	0	0
21.09	1.61151	1.37072	-0.146059	0.566639	-0.446962	0.977213	0.09637	0.0211863	-0.365013	0.41625	0.125608	0	0	-0.0902397	-0.108311	-0.323827	0	0.0560545	0	0	-0.127475	-0.11599	0.154011	0.362705	-0.587897	0.00720682	1.09453	1.3981	0	0	0.730528	0.227931	0.689888	0.808579	1.5708	0	0
21.1	1.61148	1.3702	-0.14722	0.566509	-0.446949	0.977227	0.0960137	0.0216805	-0.365672	0.415428	0.124661	0	0	-0.0906104	-0.108522	-0.32459	0	0.0563355	0	0	-0.12744	-0.116149	0.154771	0.363794	-0.588158	0.00811381	1.09319	1.39594	0	0	0.729971	0.228622	0.687704	0.808532	1.5708	0	0
21.11	1.55037	1.38041	-0.0814427	0.565634	-0.448783	0.976784	0.115408	0.00966096	-0.370076	0.423341	0.12522	0	0	-0.070826	-0.103212	-0.34505	0	0.0492398	0	0	-0.118707	-0.126862	0.14583	0.368349	-0.582625	0.0056731	1.08759	1.39606	0	0	0.73129	0.226822	0.686244	0.809707	1.5708	0	0
21.12	1.59733	1.37101	-0.136069	0.566272	-0.446884	0.976981	0.0998254	0.0206958	-0.365587	0.416629	0.12549	0	0	-0.0878717	-0.107322	-0.326453	0	0.0574063	0	0	-0.123694	-0.117994	0.15633	0.366116	-0.587425	0.00862824	1.08852	1.39463	0	0	0.728161	0.229198	0.685464	0.80963	1.5708	0	0
21.13	1.60158	1.35874	-0.143929	0.565753	-0.447812	0.978083	0.0931528	0.0339914	-0.375624	0.403127	0.113069	0	0	-0.0903531	-0.119734	-0.32974	0	0.056722	0	0	-0.129789	-0.103872	0.158886	0.373383	-0.590634	0.015114	1.08521	1.39025	0	0	0.727654	0.232552	0.67607	0.808069	1.5708	0	0
21.14	1.61664	1.36828	-0.155821	0.565808	-0.446778	0.97725	0.0929648	0.02365	-0.365273	0.411223	0.123559	0	0	-0.0927393	-0.109111	-0.326863	0	0.0577979	0	0	-0.128524	-0.116689	0.156327	0.369089	-0.589877	0.0145973	1.08558	1.38798	0	0	0.727924	0.231184	0.681744	0.808967	1.5708	0	0
21.15	1.61451	1.36849	-0.154997	0.565656	-0.446819	0.977197	0.0933024	0.0232842	-0.36523	0.410749	0.123852	0	0	-0.0924224	-0.108582	-0.327578	0	0.0580708	0	0	-0.127917	-0.11746	0.15743	0.369642	-0.590641	0.0167162	1.08392	1.38488	0	0	0.728196	0.231631	0.683004	0.80807	1.5708	0	0
21.16	1.61417	1.36805	-0.155728	0.565503	-0.44685	0.977196	0.0926903	0.0238529	-0.364653	0.409232	0.123198	0	0	-0.0925158	-0.108724	-0.328318	0	0.0584873	0	0	-0.127911	-0.117468	0.158062	0.370805	-0.591066	0.0185462	1.08208	1.3824	0	0	0.728264	0.232215	0.682897	0.807421	1.5708	0	0
21.17	1.6132	1.36779	-0.15585	0.565359	-0.446887	0.977187	0.0924138	0.0241584	-0.364127	0.408275	0.122641	0	0	-0.0924827	-0.108689	-0.329059	0	0.0588131	0	0	-0.12772	-0.117555	0.158676	0.371957	-0.591276	0.0198151	1.08047	1.37926	0	0	0.728219	0.232531	0.683066	0.807298	1.5708	0	0
21.18	1.61283	1.36743	-0.156381	0.565199	-0.446914	0.977174	0.0918879	0.0245275	-0.36376	0.407119	0.121989	0	0	-0.0925632	-0.108764	-0.329633	0	0.058932	0	0	-0.127723	-0.117465	0.15906	0.373004	-0.591522	0.0210869	1.07931	1.37664	0	0	0.728119	0.233072	0.681965	0.806755	1.5708	0	0
21.19	1.61325	1.36701	-0.157568	0.565014	-0.446939	0.97715	0.0910712	0.0249535	-0.363396	0.405642	0.121298	0	0	-0.0927817	-0.108884	-0.330181	0	0.0591382	0	0	-0.127971	-0.117308	0.159334	0.37384	-0.591671	0.0218825	1.07858	1.37583	0	0	0.728196	0.233534	0.681736	0.806367	1.5708	0	0
21.2	1.61341	1.3666	-0.158545	0.564836	-0.446988	0.977132	0.090315	0.0253508	-0.362988	0.404319	0.120689	0	0	-0.0929453	-0.109003	-0.330664	0	0.0593473	0	0	-0.128137	-0.117106	0.159825	0.374398	-0.591688	0.0220563	1.07803	1.37581	0	0	0.728153	0.23394	0.681412	0.806278	1.5708	0	0
21.21	1.61359	1.36627	-0.159594	0.564657	-0.447032	0.977123	0.0897197	0.0255708	-0.362643	0.403585	0.120272	0	0	-0.0931098	-0.109029	-0.331172	0	0.0596217	0	0	-0.128236	-0.116964	0.160181	0.375074	-0.591431	0.0219468	1.07758	1.37588	0	0	0.728014	0.234372	0.680223	0.806269	1.5708	0	0
21.22	1.61344	1.36595	-0.160298	0.56448	-0.447075	0.977105	0.0892509	0.0257332	-0.362368	0.403072	0.120034	0	0	-0.0932144	-0.109081	-0.331743	0	0.060061	0	0	-0.128262	-0.116749	0.160464	0.375776	-0.591094	0.0217354	1.07731	1.37591	0	0	0.727831	0.23468	0.679542	0.806649	1.5708	0	0
21.23	1.6132	1.3656	-0.160912	0.564308	-0.447124	0.97709	0.0887351	0.0259261	-0.362147	0.402427	0.119815	0	0	-0.09332	-0.109157	-0.332357	0	0.0603188	0	0	-0.128281	-0.116521	0.160875	0.376108	-0.590784	0.0211541	1.07751	1.37597	0	0	0.727644	0.234921	0.679098	0.807005	1.5708	0	0
21.24	1.61319	1.36529	-0.161659	0.564123	-0.447178	0.977086	0.0880945	0.0260897	-0.362108	0.401532	0.119575	0	0	-0.0934681	-0.109192	-0.332776	0	0.0604055	0	0	-0.128345	-0.116336	0.161338	0.376137	-0.590471	0.020299	1.07797	1.37621	0	0	0.727545	0.23517	0.678768	0.807133	1.5708	0	0
21.25	1.61305	1.3649	-0.162252	0.563951	-0.447251	0.977094	0.0874558	0.0263875	-0.361926	0.400661	0.119227	0	0	-0.0935443	-0.109334	-0.333235	0	0.0605005	0	0	-0.128446	-0.11602	0.161815	0.37615	-0.590128	0.0194943	1.07847	1.37671	0	0	0.727618	0.235477	0.678279	0.806934	1.5708	0	0
21.26	1.61282	1.36456	-0.162668	0.563771	-0.447344	0.977115	0.0869153	0.0266158	-0.36168	0.400007	0.118919	0	0	-0.0935464	-0.109412	-0.333622	0	0.0605115	0	0	-0.128587	-0.115747	0.162245	0.375917	-0.589809	0.0185088	1.07934	1.37753	0	0	0.727842	0.235921	0.677419	0.80641	1.5708	0	0
